<mxfile host="app.diagrams.net" modified="2023-12-19T16:40:26.399Z" agent="Mozilla/5.0 (Windows NT 10.0; Win64; x64) AppleWebKit/537.36 (KHTML, like Gecko) Chrome/120.0.0.0 Safari/537.36" etag="2JPE1-X4v4IRoCaghVre" version="22.1.11" type="device">
  <diagram name="Pagina-1" id="_xMTQY1CDe_qUrfeuERv">
    <mxGraphModel dx="1050" dy="572" grid="1" gridSize="10" guides="1" tooltips="1" connect="1" arrows="1" fold="1" page="1" pageScale="1" pageWidth="1200" pageHeight="1600" math="0" shadow="0">
      <root>
        <mxCell id="0" />
        <mxCell id="1" parent="0" />
        <mxCell id="BF2RhjWOolZsJI2DYSBB-1" value="Start programma" style="rounded=1;whiteSpace=wrap;html=1;" parent="1" vertex="1">
          <mxGeometry x="354" y="40" width="120" height="60" as="geometry" />
        </mxCell>
        <mxCell id="BF2RhjWOolZsJI2DYSBB-5" value="" style="endArrow=classic;html=1;rounded=0;edgeStyle=orthogonalEdgeStyle;exitX=0.5;exitY=1;exitDx=0;exitDy=0;" parent="1" source="BF2RhjWOolZsJI2DYSBB-1" edge="1">
          <mxGeometry width="50" height="50" relative="1" as="geometry">
            <mxPoint x="450" y="270" as="sourcePoint" />
            <mxPoint x="414" y="130" as="targetPoint" />
          </mxGeometry>
        </mxCell>
        <mxCell id="a4PoGYg8q1GMRqjqXM8J-4" value="" style="edgeStyle=none;curved=1;rounded=0;orthogonalLoop=1;jettySize=auto;html=1;fontSize=12;startSize=8;endSize=8;" edge="1" parent="1" source="a4PoGYg8q1GMRqjqXM8J-2" target="a4PoGYg8q1GMRqjqXM8J-3">
          <mxGeometry relative="1" as="geometry" />
        </mxCell>
        <mxCell id="a4PoGYg8q1GMRqjqXM8J-2" value="Round 0" style="rounded=0;whiteSpace=wrap;html=1;fontSize=16;" vertex="1" parent="1">
          <mxGeometry x="383.5" y="130" width="61" height="40" as="geometry" />
        </mxCell>
        <mxCell id="a4PoGYg8q1GMRqjqXM8J-6" value="" style="edgeStyle=none;curved=1;rounded=0;orthogonalLoop=1;jettySize=auto;html=1;fontSize=12;startSize=8;endSize=8;" edge="1" parent="1" source="a4PoGYg8q1GMRqjqXM8J-3">
          <mxGeometry relative="1" as="geometry">
            <mxPoint x="414" y="260" as="targetPoint" />
          </mxGeometry>
        </mxCell>
        <mxCell id="a4PoGYg8q1GMRqjqXM8J-3" value="score 0" style="rounded=0;whiteSpace=wrap;html=1;fontSize=16;" vertex="1" parent="1">
          <mxGeometry x="381" y="190" width="66" height="50" as="geometry" />
        </mxCell>
      </root>
    </mxGraphModel>
  </diagram>
</mxfile>
